<svg width="57" height="57" viewBox="0 0 57 57" fill="none" xmlns="http://www.w3.org/2000/svg">
<path d="M28.5 0C44.2401 0 57 12.7599 57 28.5C57 44.2401 44.2401 57 28.5 57C12.7599 57 0 44.2401 0 28.5C0 12.7599 12.7599 0 28.5 0ZM28.5 6C16.0736 6 6 16.0736 6 28.5C6 40.9264 16.0736 51 28.5 51C40.9264 51 51 40.9264 51 28.5C51 16.0736 40.9264 6 28.5 6ZM28.5 8C39.8218 8 49 17.1782 49 28.5C49 39.8218 39.8218 49 28.5 49C17.1782 49 8 39.8218 8 28.5C8 17.1782 17.1782 8 28.5 8ZM28.5 13C19.9396 13 13 19.9396 13 28.5C13 37.0604 19.9396 44 28.5 44C37.0604 44 44 37.0604 44 28.5C44 19.9396 37.0604 13 28.5 13ZM28.5 15C35.4488 15 41.1708 20.2501 41.917 27H37.5C36.6716 27 36 27.6716 36 28.5C36 29.3284 36.6716 30 37.5 30H41.917C41.1708 36.7499 35.4488 42 28.5 42C21.5512 42 15.8292 36.7499 15.083 30H19.5C20.3284 30 21 29.3284 21 28.5C21 27.6716 20.3284 27 19.5 27H15.083C15.8292 20.2501 21.5512 15 28.5 15ZM28.5 24C26.0147 24 24 26.0147 24 28.5C24 30.9853 26.0147 33 28.5 33C30.9853 33 33 30.9853 33 28.5C33 26.0147 30.9853 24 28.5 24Z" fill="#FF79C6"/>
</svg>
